<svg width="512" height="512" viewBox="0 0 512 512" fill="none" xmlns="http://www.w3.org/2000/svg">
<path d="M0 50C0 22.3858 22.3858 0 50 0H462C489.614 0 512 22.3858 512 50V462C512 489.614 489.614 512 462 512H50C22.3858 512 0 489.614 0 462V50Z" fill="black"/>
<path d="M122.578 449C120.914 449 119.538 448.456 118.45 447.368C117.362 446.216 116.818 444.808 116.818 443.144V403.496C116.818 401.832 117.362 400.456 118.45 399.368C119.538 398.216 120.914 397.64 122.578 397.64C124.242 397.64 125.618 398.216 126.706 399.368C127.794 400.456 128.338 401.832 128.338 403.496V412.52L127.666 406.088C128.37 404.552 129.266 403.208 130.354 402.056C131.506 400.84 132.786 399.848 134.194 399.08C135.602 398.248 137.106 397.64 138.706 397.256C140.306 396.872 141.906 396.68 143.506 396.68C145.426 396.68 147.026 397.224 148.306 398.312C149.65 399.4 150.322 400.68 150.322 402.152C150.322 404.264 149.778 405.8 148.69 406.76C147.602 407.656 146.418 408.104 145.138 408.104C143.922 408.104 142.802 407.88 141.778 407.432C140.818 406.984 139.698 406.76 138.418 406.76C137.266 406.76 136.082 407.048 134.866 407.624C133.714 408.136 132.626 408.968 131.602 410.12C130.642 411.272 129.842 412.712 129.202 414.44C128.626 416.104 128.338 418.088 128.338 420.392V443.144C128.338 444.808 127.794 446.216 126.706 447.368C125.618 448.456 124.242 449 122.578 449ZM180.479 449.96C175.039 449.96 170.303 448.84 166.271 446.6C162.303 444.296 159.231 441.192 157.055 437.288C154.943 433.384 153.887 428.968 153.887 424.04C153.887 418.28 155.039 413.384 157.343 409.352C159.711 405.256 162.783 402.12 166.559 399.944C170.335 397.768 174.335 396.68 178.559 396.68C181.823 396.68 184.895 397.352 187.775 398.696C190.719 400.04 193.311 401.896 195.551 404.264C197.791 406.568 199.551 409.256 200.831 412.328C202.175 415.4 202.847 418.664 202.847 422.12C202.783 423.656 202.175 424.904 201.023 425.864C199.871 426.824 198.527 427.304 196.991 427.304H160.319L157.439 417.704H192.671L190.559 419.624V417.032C190.431 415.176 189.759 413.512 188.543 412.04C187.391 410.568 185.919 409.416 184.127 408.584C182.399 407.688 180.543 407.24 178.559 407.24C176.639 407.24 174.847 407.496 173.183 408.008C171.519 408.52 170.079 409.384 168.863 410.6C167.647 411.816 166.687 413.448 165.983 415.496C165.279 417.544 164.927 420.136 164.927 423.272C164.927 426.728 165.631 429.672 167.039 432.104C168.511 434.472 170.367 436.296 172.607 437.576C174.911 438.792 177.343 439.4 179.903 439.4C182.271 439.4 184.159 439.208 185.567 438.824C186.975 438.44 188.095 437.992 188.927 437.48C189.823 436.904 190.623 436.424 191.327 436.04C192.479 435.464 193.567 435.176 194.591 435.176C195.999 435.176 197.151 435.656 198.047 436.616C199.007 437.576 199.487 438.696 199.487 439.976C199.487 441.704 198.591 443.272 196.799 444.68C195.135 446.088 192.799 447.336 189.791 448.424C186.783 449.448 183.679 449.96 180.479 449.96ZM235.76 396.68C239.408 396.68 242.576 397.064 245.264 397.832C248.016 398.6 250.128 399.688 251.6 401.096C253.136 402.44 253.904 404.072 253.904 405.992C253.904 407.272 253.52 408.488 252.752 409.64C251.984 410.728 250.864 411.272 249.392 411.272C248.368 411.272 247.504 411.144 246.8 410.888C246.16 410.568 245.584 410.184 245.072 409.736C244.56 409.288 243.952 408.872 243.248 408.488C242.608 408.104 241.616 407.816 240.272 407.624C238.992 407.368 238.032 407.24 237.392 407.24C234.128 407.24 231.344 407.944 229.04 409.352C226.8 410.76 225.072 412.68 223.856 415.112C222.64 417.48 222.032 420.232 222.032 423.368C222.032 426.44 222.64 429.192 223.856 431.624C225.136 433.992 226.864 435.88 229.04 437.288C231.28 438.696 233.84 439.4 236.72 439.4C238.32 439.4 239.696 439.304 240.848 439.112C242 438.92 242.96 438.632 243.728 438.248C244.624 437.736 245.424 437.192 246.128 436.616C246.832 436.04 247.888 435.752 249.296 435.752C250.96 435.752 252.24 436.296 253.136 437.384C254.032 438.408 254.48 439.688 254.48 441.224C254.48 442.824 253.584 444.296 251.792 445.64C250 446.92 247.632 447.976 244.688 448.808C241.808 449.576 238.672 449.96 235.28 449.96C230.224 449.96 225.84 448.808 222.128 446.504C218.416 444.136 215.536 440.936 213.488 436.904C211.504 432.872 210.512 428.36 210.512 423.368C210.512 418.12 211.568 413.512 213.68 409.544C215.856 405.512 218.832 402.376 222.608 400.136C226.448 397.832 230.832 396.68 235.76 396.68ZM304.835 396.68C306.499 396.68 307.875 397.224 308.963 398.312C310.051 399.4 310.595 400.808 310.595 402.536V443.144C310.595 444.808 310.051 446.216 308.963 447.368C307.875 448.456 306.499 449 304.835 449C303.171 449 301.795 448.456 300.707 447.368C299.619 446.216 299.075 444.808 299.075 443.144V438.44L301.187 439.304C301.187 440.136 300.739 441.16 299.843 442.376C298.947 443.528 297.731 444.68 296.195 445.832C294.659 446.984 292.835 447.976 290.723 448.808C288.675 449.576 286.435 449.96 284.003 449.96C279.587 449.96 275.587 448.84 272.003 446.6C268.419 444.296 265.571 441.16 263.459 437.192C261.411 433.16 260.387 428.552 260.387 423.368C260.387 418.12 261.411 413.512 263.459 409.544C265.571 405.512 268.387 402.376 271.907 400.136C275.427 397.832 279.331 396.68 283.619 396.68C286.371 396.68 288.899 397.096 291.203 397.928C293.507 398.76 295.491 399.816 297.155 401.096C298.883 402.376 300.195 403.688 301.091 405.032C302.051 406.312 302.531 407.4 302.531 408.296L299.075 409.544V402.536C299.075 400.872 299.619 399.496 300.707 398.408C301.795 397.256 303.171 396.68 304.835 396.68ZM285.443 439.4C288.259 439.4 290.723 438.696 292.835 437.288C294.947 435.88 296.579 433.96 297.731 431.528C298.947 429.096 299.555 426.376 299.555 423.368C299.555 420.296 298.947 417.544 297.731 415.112C296.579 412.68 294.947 410.76 292.835 409.352C290.723 407.944 288.259 407.24 285.443 407.24C282.691 407.24 280.259 407.944 278.147 409.352C276.035 410.76 274.371 412.68 273.155 415.112C272.003 417.544 271.427 420.296 271.427 423.368C271.427 426.376 272.003 429.096 273.155 431.528C274.371 433.96 276.035 435.88 278.147 437.288C280.259 438.696 282.691 439.4 285.443 439.4ZM320.092 441.032C319.452 440.136 319.164 438.984 319.228 437.576C319.292 436.168 320.124 434.952 321.724 433.928C322.748 433.288 323.836 433.032 324.988 433.16C326.14 433.224 327.26 433.8 328.348 434.888C330.204 436.744 332.156 438.184 334.204 439.208C336.252 440.232 338.812 440.744 341.884 440.744C342.844 440.68 343.9 440.552 345.052 440.36C346.204 440.104 347.196 439.592 348.028 438.824C348.924 437.992 349.372 436.744 349.372 435.08C349.372 433.672 348.892 432.552 347.932 431.72C346.972 430.888 345.692 430.184 344.092 429.608C342.556 429.032 340.828 428.488 338.908 427.976C336.924 427.4 334.876 426.76 332.764 426.056C330.716 425.352 328.828 424.456 327.1 423.368C325.372 422.216 323.964 420.712 322.876 418.856C321.788 417 321.244 414.664 321.244 411.848C321.244 408.648 322.14 405.928 323.932 403.688C325.724 401.448 328.028 399.72 330.844 398.504C333.724 397.288 336.732 396.68 339.868 396.68C341.852 396.68 343.932 396.936 346.108 397.448C348.284 397.896 350.364 398.664 352.348 399.752C354.332 400.776 355.996 402.152 357.34 403.88C358.044 404.84 358.46 405.992 358.588 407.336C358.716 408.68 358.108 409.896 356.764 410.984C355.804 411.752 354.684 412.104 353.404 412.04C352.124 411.912 351.068 411.464 350.236 410.696C349.148 409.288 347.676 408.168 345.82 407.336C344.028 406.504 341.948 406.088 339.58 406.088C338.62 406.088 337.564 406.216 336.412 406.472C335.324 406.664 334.364 407.144 333.532 407.912C332.7 408.616 332.284 409.768 332.284 411.368C332.284 412.84 332.764 414.024 333.724 414.92C334.684 415.752 335.964 416.456 337.564 417.032C339.228 417.544 340.988 418.056 342.844 418.568C344.764 419.08 346.716 419.688 348.7 420.392C350.684 421.096 352.508 422.024 354.172 423.176C355.836 424.328 357.18 425.832 358.204 427.688C359.228 429.48 359.74 431.784 359.74 434.6C359.74 437.864 358.78 440.648 356.86 442.952C354.94 445.256 352.54 447.016 349.66 448.232C346.78 449.384 343.836 449.96 340.828 449.96C337.052 449.96 333.276 449.32 329.5 448.04C325.724 446.696 322.588 444.36 320.092 441.032ZM369.957 398.6H392.709C394.245 398.6 395.525 399.112 396.549 400.136C397.573 401.16 398.085 402.44 398.085 403.976C398.085 405.448 397.573 406.696 396.549 407.72C395.525 408.68 394.245 409.16 392.709 409.16H369.957C368.421 409.16 367.141 408.648 366.117 407.624C365.093 406.6 364.581 405.32 364.581 403.784C364.581 402.312 365.093 401.096 366.117 400.136C367.141 399.112 368.421 398.6 369.957 398.6ZM380.229 386.6C381.893 386.6 383.237 387.176 384.261 388.328C385.349 389.416 385.893 390.792 385.893 392.456V435.176C385.893 436.072 386.053 436.808 386.373 437.384C386.757 437.96 387.237 438.376 387.813 438.632C388.453 438.888 389.125 439.016 389.829 439.016C390.597 439.016 391.301 438.888 391.941 438.632C392.581 438.312 393.317 438.152 394.149 438.152C395.045 438.152 395.845 438.568 396.549 439.4C397.317 440.232 397.701 441.384 397.701 442.856C397.701 444.648 396.709 446.12 394.725 447.272C392.805 448.424 390.725 449 388.485 449C387.141 449 385.637 448.904 383.973 448.712C382.373 448.456 380.837 447.912 379.365 447.08C377.957 446.184 376.773 444.84 375.813 443.048C374.853 441.256 374.373 438.792 374.373 435.656V392.456C374.373 390.792 374.917 389.416 376.005 388.328C377.157 387.176 378.565 386.6 380.229 386.6Z" fill="white"/>
<g filter="url(#filter0_d_3218_20)">
<path d="M302.835 206.898C316.461 214.537 316.461 234.149 302.835 241.788L247.519 272.803C234.187 280.278 217.737 270.642 217.737 255.358V193.328C217.737 178.044 234.187 168.408 247.519 175.883L302.835 206.898Z" fill="#BFFF00"/>
</g>
<path d="M126 120.706C126 115.972 129.838 112.135 134.571 112.135H220C223.314 112.135 226 114.821 226 118.135C226 121.448 223.314 124.135 220 124.135H129.429C127.535 124.135 126 122.6 126 120.706Z" fill="#D9D9D9"/>
<path d="M134.571 112.135C136.465 112.135 138 113.67 138 115.563V206.135C138 209.448 135.314 212.135 132 212.135C128.686 212.135 126 209.448 126 206.135L126 120.706C126 115.972 129.838 112.135 134.571 112.135Z" fill="#D9D9D9"/>
<path d="M385.212 333.776C385.212 338.51 381.374 342.348 376.64 342.348H291.212C287.898 342.348 285.212 339.661 285.212 336.348C285.212 333.034 287.898 330.348 291.212 330.348H381.783C383.677 330.348 385.212 331.883 385.212 333.776Z" fill="#D9D9D9"/>
<path d="M376.64 342.348C374.747 342.348 373.212 340.813 373.212 338.919V248.348C373.212 245.034 375.898 242.348 379.212 242.348C382.526 242.348 385.212 245.034 385.212 248.348V333.776C385.212 338.51 381.374 342.348 376.64 342.348Z" fill="#D9D9D9"/>
<path d="M376.293 112C381.026 112 384.864 115.838 384.864 120.571V206C384.864 209.314 382.178 212 378.864 212C375.55 212 372.864 209.314 372.864 206V115.429C372.864 113.535 374.399 112 376.293 112Z" fill="#D9D9D9"/>
<path d="M384.864 120.571C384.864 122.465 383.329 124 381.435 124L290.864 124C287.55 124 284.864 121.314 284.864 118C284.864 114.686 287.55 112 290.864 112L376.293 112C381.026 112 384.864 115.838 384.864 120.571Z" fill="#D9D9D9"/>
<path d="M134.607 342.172C129.873 342.172 126.036 338.334 126.036 333.6L126.036 248.172C126.036 244.858 128.722 242.172 132.036 242.172C135.35 242.172 138.036 244.858 138.036 248.172V338.743C138.036 340.637 136.501 342.172 134.607 342.172Z" fill="#D9D9D9"/>
<path d="M126.036 333.6C126.036 331.707 127.571 330.172 129.464 330.172H220.036C223.35 330.172 226.036 332.858 226.036 336.172C226.036 339.486 223.35 342.172 220.036 342.172H134.607C129.873 342.172 126.036 338.334 126.036 333.6Z" fill="#D9D9D9"/>
<defs>
<filter id="filter0_d_3218_20" x="167.737" y="133.299" width="195.317" height="202.088" filterUnits="userSpaceOnUse" color-interpolation-filters="sRGB">
<feFlood flood-opacity="0" result="BackgroundImageFix"/>
<feColorMatrix in="SourceAlpha" type="matrix" values="0 0 0 0 0 0 0 0 0 0 0 0 0 0 0 0 0 0 127 0" result="hardAlpha"/>
<feOffset dy="10"/>
<feGaussianBlur stdDeviation="25"/>
<feComposite in2="hardAlpha" operator="out"/>
<feColorMatrix type="matrix" values="0 0 0 0 0 0 0 0 0 0 0 0 0 0 0 0 0 0 0.2 0"/>
<feBlend mode="normal" in2="BackgroundImageFix" result="effect1_dropShadow_3218_20"/>
<feBlend mode="normal" in="SourceGraphic" in2="effect1_dropShadow_3218_20" result="shape"/>
</filter>
</defs>
</svg>
